<?xml version="1.0" encoding="UTF-8" standalone="no"?>
<svg
   xmlns:dc="http://purl.org/dc/elements/1.1/"
   xmlns:cc="http://creativecommons.org/ns#"
   xmlns:rdf="http://www.w3.org/1999/02/22-rdf-syntax-ns#"
   xmlns:svg="http://www.w3.org/2000/svg"
   xmlns="http://www.w3.org/2000/svg"
   viewBox="0 0 14400 14400"
   height="14400"
   width="14400"
   xml:space="preserve"
   id="svg2"
   version="1.1"><metadata
     id="metadata8"><rdf:RDF><cc:Work
         rdf:about=""><dc:format>image/svg+xml</dc:format><dc:type
           rdf:resource="http://purl.org/dc/dcmitype/StillImage" /></cc:Work></rdf:RDF></metadata><defs
     id="defs6"><clipPath
       id="clipPath18"
       clipPathUnits="userSpaceOnUse"><path
         id="path16"
         d="M 0,10800 H 10800 V 0 H 0 Z" /></clipPath></defs><g
     transform="matrix(1.3333333,0,0,-1.3333333,0,14400)"
     id="g10"><g
       id="g12"><g
         clip-path="url(#clipPath18)"
         id="g14"><g
           transform="translate(4688.1309,6079.5508)"
           id="g20"><path
             id="path22"
             style="fill:#7b3333;fill-opacity:1;fill-rule:nonzero;stroke:none"
             d="m 0,0 c 0,-1147.928 -930.612,-2078.541 -2078.577,-2078.541 -1147.895,0 -2078.507,930.613 -2078.507,2078.541 0,1147.965 930.612,2078.541 2078.507,2078.541 C -930.612,2078.541 0,1147.965 0,0" /></g><g
           transform="translate(2331.7061,5039.0518)"
           id="g24"><path
             id="path26"
             style="fill:#e4c582;fill-opacity:1;fill-rule:nonzero;stroke:none"
             d="m 0,0 h 0.173 v 5.777 c 0,1.973 0.052,3.946 0.052,5.952 0,1.245 -0.052,2.528 -0.052,3.772 0,2.353 0.052,3.598 0.052,3.598 H 0.173 V 1020.985 H 0 c -0.173,17.991 -1.973,34.703 -5.172,50.031 -4.827,23.25 -12.786,43.595 -22.906,61.447 -117.151,215.034 -395,155.524 -395,155.524 -106.583,-16.055 -185.452,-59.166 -185.452,-59.166 l 0.122,0.036 c -1.523,-0.796 -3.149,-1.627 -4.706,-2.491 -70.564,40.204 -139.711,46.328 -139.711,46.328 48.283,-10.31 49.633,-244.34 48.992,-309.8 -0.189,-3.184 -0.242,-6.299 -0.242,-9.48 V 494.836 c 0.692,-288.972 288.366,-314.296 288.366,-314.296 -48.283,10.309 -49.562,243.852 -48.922,309.521 0.051,1.627 0.051,3.15 0.051,4.775 h 0.294 v 458.578 c 0,1.278 -0.051,2.525 -0.051,3.84 h 0.051 c 0,117.913 -47.712,192.094 -104.264,238.594 5.64,3.047 9.705,5.226 11.158,5.744 66.777,28.718 145.767,45.845 213.459,11.523 53.647,-26.988 100.079,-83.937 102.76,-143.552 0.813,-17.646 1.211,-34.739 1.506,-50.445 V 0 h 0.12 C -234.323,-282.503 48.819,-307.552 48.819,-307.552 1.038,-297.416 -0.64,-68.402 0,0" /></g><g
           transform="translate(2817.7202,4765.9609)"
           id="g28"><path
             id="path30"
             style="fill:#e4c582;fill-opacity:1;fill-rule:nonzero;stroke:none"
             d="m 0,0 c 0.19,3.285 0.294,6.537 0.294,9.791 0,1.246 -0.052,2.424 -0.104,3.667 0.104,2.423 0.104,3.634 0.104,3.634 H 0.19 V 1294.076 H 0.069 c -0.242,17.99 -1.972,34.702 -5.172,50.031 -4.827,23.25 -12.785,43.595 -23.009,61.447 -98.625,181.092 -311.271,167.461 -375.902,158.602 v -60.27 c 20.569,-2.32 40.792,-7.89 60.15,-17.68 53.646,-26.988 100.131,-83.937 102.742,-143.552 0.709,-17.646 1.228,-34.739 1.522,-50.446 V 9.791 c 0,-1.313 0,-2.629 0.053,-3.908 h -0.053 c 0,-289.942 288.488,-315.37 288.488,-315.37 C 0.588,-299.246 -0.571,-65.705 0,0" /></g><g
           transform="translate(3130.2188,6527.0898)"
           id="g32"><path
             id="path34"
             style="fill:#e4c582;fill-opacity:1;fill-rule:nonzero;stroke:none"
             d="m 0,0 c -58.75,41.347 -120.526,76.534 -185.157,107.846 -36.796,18.165 -74.388,34.911 -111.876,51.173 -36.952,15.88 -73.973,31.762 -110.717,48.299 -57.815,26.261 -115.527,53.318 -170.159,85.632 -16.504,9.551 -32.54,19.689 -48.232,30.24 -101.409,67.78 -187.249,140.405 -193.114,272.539 -1.799,38.128 4.757,79.301 16.21,115.836 10.933,34.911 28.129,73.074 49.166,103.105 20.742,29.478 45.567,59.755 72.294,83.835 20.465,18.509 41.035,37.609 64.095,52.521 29.133,19.238 61.845,33.908 98.227,44.183 35.913,11.281 74.215,17.645 113.605,17.439 33.303,1.454 68.819,0.38 106.48,-3.356 15.396,-1.558 30.222,-3.738 44.564,-6.401 l -44.564,6.401 c 0,0 160.8,-24.255 179.344,-173.756 v -0.175 c 2.024,-43.662 2.319,-83.244 2.267,-104.557 h -0.243 v -99.163 h 0.934 c 16.453,-261.43 269.199,-283.194 269.199,-283.194 -41.156,8.927 -46.847,201.127 -47.419,283.194 h 0.104 v 99.163 h -0.104 c -2.733,185.383 -119.66,258.281 -198.823,286.411 -16.503,6.781 -34.34,13.7 -53.697,20.863 -36.035,13.423 -84.855,23.112 -145.698,29.341 -86.013,8.509 -166.733,2.697 -242.868,-17.681 -76.309,-20.344 -143.086,-52.453 -200.502,-97.189 -57.884,-44.424 -105.354,-98.364 -142.323,-161.889 -37.021,-63.109 -59.441,-133.589 -67.416,-211.368 -9.066,-91.202 -3.357,-167.32 16.866,-228.042 20.5,-60.687 49.685,-112.203 87.64,-153.517 37.298,-41.587 79.561,-75.183 126.096,-100.787 46.155,-25.776 89.387,-47.503 129.539,-65.496 l 312.724,-144.832 c 34.064,-15.535 68.057,-31.138 100.667,-49.578 27.489,-15.744 53.802,-33.909 76.757,-55.706 22.438,-21.037 42.367,-45.256 59.165,-71.308 17.732,-27.23 31.918,-56.846 41.328,-88.159 36.555,-124.453 0.745,-256.795 -81.186,-358.204 -10.934,-13.496 -19.756,-24.117 -33.371,-35.395 -13.355,-11.212 -25.914,-20.76 -42.366,-31.415 14.652,2.455 25.585,5.36 37.73,9.41 28.008,9.582 54.632,23.075 80.374,37.332 26.606,14.774 51.605,32.142 74.681,51.691 23.874,20.343 45.672,42.558 65.497,66.464 19.808,23.735 37.125,49.201 51.708,76.36 14.359,26.919 25.517,55.222 36.382,83.697 1.279,3.528 2.853,6.919 3.788,10.31 41.727,142.34 -10.692,299.939 -116.063,402.216 C 56.656,-41.657 28.251,-19.79 0,0" /></g><g
           transform="translate(3187.1694,7598.2793)"
           id="g36"><path
             id="path38"
             style="fill:#e4c582;fill-opacity:1;fill-rule:nonzero;stroke:none"
             d="m 0,0 c 15.102,0 28.077,5.674 38.941,16.746 10.916,11.279 16.556,24.703 16.556,40.308 0,16.78 -5.64,30.724 -16.556,42.175 C 28.077,110.751 15.102,116.392 0,116.392 c -16.729,0 -30.62,-5.641 -41.433,-17.163 -11.036,-11.451 -16.331,-25.395 -16.331,-42.175 0,-15.605 5.295,-29.029 16.331,-40.308 C -30.62,5.674 -16.729,0 0,0" /></g><g
           transform="translate(3354.4907,7477.0435)"
           id="g40"><path
             id="path42"
             style="fill:#e4c582;fill-opacity:1;fill-rule:nonzero;stroke:none"
             d="m 0,0 c 15.103,0 28.128,5.64 39.045,16.816 10.985,11.072 16.453,24.6 16.453,40.168 0,16.644 -5.468,30.689 -16.453,42.178 -10.917,11.417 -23.942,17.16 -39.045,17.16 -16.625,0 -30.517,-5.743 -41.329,-17.16 -11.037,-11.489 -16.452,-25.534 -16.452,-42.178 0,-15.568 5.415,-29.096 16.452,-40.168 C -30.517,5.64 -16.625,0 0,0" /></g><g
           transform="translate(3404.521,7361.5527)"
           id="g44"><path
             id="path46"
             style="fill:#e4c582;fill-opacity:1;fill-rule:nonzero;stroke:none"
             d="m 0,0 c -10.985,11.381 -23.943,17.092 -38.994,17.092 -16.625,0 -30.446,-5.711 -41.501,-17.092 -10.864,-11.522 -16.262,-25.604 -16.262,-42.247 0,-15.638 5.398,-29.028 16.262,-40.274 11.055,-11.072 24.876,-16.78 41.501,-16.78 15.051,0 28.009,5.708 38.994,16.78 10.864,11.246 16.452,24.636 16.452,40.274 C 16.452,-25.604 10.864,-11.522 0,0" /></g><g
           transform="translate(5579.6309,6796.5308)"
           id="g48"><path
             id="path50"
             style="fill:#7b3333;fill-opacity:1;fill-rule:nonzero;stroke:none"
             d="m 0,0 c -8.443,-20.999 -20.594,-39.132 -36.688,-54.438 -16.153,-15.233 -35.513,-27.346 -58.457,-36.156 -22.995,-8.736 -48.633,-13.213 -76.934,-13.213 -19.913,0 -35.147,1.542 -45.866,4.515 -10.682,2.937 -19.801,6.461 -27.568,10.498 -7.579,4.038 -14.551,7.563 -20.534,10.534 -6.221,2.975 -14.113,4.442 -24.1,4.442 -10.736,0 -20.353,-2.643 -28.85,-7.67 -8.203,-5.178 -13.38,-9.434 -14.683,-13.07 0,-0.771 -1.725,-1.246 -4.755,-1.652 -3.008,-0.439 -6.09,-0.549 -9.175,-0.549 -3.14,0 -5.671,0.11 -7.965,0.549 -2.278,0.406 -3.45,0.881 -3.45,1.544 l 5.8,175.64 c 0,0.77 1.171,1.136 3.449,1.136 h 9.194 8.078 c 3.009,0 4.551,-0.366 4.551,-1.136 0,-22.907 3.521,-43.902 10.24,-62.991 6.848,-19.196 17.088,-35.75 30.887,-49.993 13.875,-14.095 30.284,-25.215 49.446,-33.219 19.05,-8.039 40.944,-12.113 65.301,-12.113 34.468,0 60.729,7.232 79.154,21.877 18.446,14.387 27.514,38.834 27.569,73.302 0,13.691 -2.716,24.815 -8.019,33.22 -5.233,8.406 -13.565,15.894 -24.596,22.391 -11.103,6.496 -25.658,12.261 -43.534,17.215 -18.188,4.955 -39.641,10.534 -64.86,16.665 -45.936,9.249 -81.14,24.263 -105.604,45.443 -24.298,20.921 -36.687,51.423 -36.634,91.14 0,26.026 4.571,49.113 13.823,69.376 9.231,20.262 21.066,36.999 35.621,50.508 14.502,13.287 30.964,23.565 49.334,30.354 18.243,6.94 37.11,10.279 56.235,10.279 16.756,0 29.953,-0.917 39.569,-2.935 9.562,-1.838 17.64,-4.004 24.042,-6.205 6.555,-2.311 12.04,-4.55 16.59,-6.348 4.625,-1.91 10.739,-2.865 18.447,-2.865 6.038,0 11.708,2.865 17.125,8.552 5.302,5.874 8.092,9.434 8.092,10.865 0.787,0.771 2.403,1.321 5.05,1.798 2.769,0.405 5.486,0.516 8.568,0.516 3.82,0 7.211,-0.111 9.854,-0.516 2.608,-0.477 4.021,-1.027 4.021,-1.798 l -0.072,-142.234 c 0,-0.736 -1.544,-1.284 -4.555,-1.729 -3.135,-0.33 -6.605,-0.548 -10.351,-0.548 -3.082,0 -5.926,0.218 -8.644,0.548 -2.64,0.445 -4,0.993 -4,1.729 0,16.148 -3.819,31.053 -11.414,44.78 -7.636,13.801 -17.38,25.768 -29.271,36.229 -11.842,10.205 -25.037,18.205 -39.536,24.042 -14.609,5.727 -29.089,8.589 -43.515,8.589 -26.081,0 -47.113,-5.285 -63.135,-16.078 -16.094,-10.643 -24.062,-31.678 -24.117,-63.023 0,-13.765 2.955,-24.667 9.012,-32.705 6.276,-8.005 15.105,-14.976 27.053,-20.632 11.911,-5.761 26.648,-11.082 44.155,-16.038 17.513,-5.102 37.848,-10.571 60.788,-16.665 19.053,-4.698 37.863,-11.123 56.106,-19.527 18.426,-8.517 34.89,-18.869 49.388,-31.016 C -19.859,148.99 -8.332,134.82 0,118.708 8.514,102.63 12.7,85.084 12.7,65.959 12.7,43.056 8.514,21.106 0,0" /></g><g
           transform="translate(5899.9277,7397.4468)"
           id="g52"><path
             id="path54"
             style="fill:#7b3333;fill-opacity:1;fill-rule:nonzero;stroke:none"
             d="m 0,0 c -16.021,-16.405 -35.146,-24.556 -57.334,-24.556 -24.54,0 -44.836,8.258 -60.803,24.63 -16.078,16.408 -24.098,36.191 -24.098,59.096 0,24.484 8.02,45.077 24.098,62 16.168,16.773 36.317,25.179 60.858,25.179 22.263,0 41.314,-8.48 57.334,-25.255 C 16.098,104.21 24.098,83.619 24.098,59.135 24.098,36.156 16.098,16.482 0,0 m -203.225,-694.481 c -0.734,0 -1.41,1.394 -1.726,3.927 -0.42,2.679 -0.678,5.284 -0.678,8.22 0,3.673 0.258,6.866 0.678,9.914 0.316,2.9 0.992,4.442 1.726,4.442 h 68.754 c 5.301,0 8.074,1.394 8.074,4.513 l 0.184,426.673 c 0,3.083 -2.771,4.625 -8.13,4.625 h -68.753 c -0.678,0 -1.356,1.323 -1.597,3.855 -0.549,2.569 -0.678,5.286 -0.678,8.296 0,3.707 0.129,6.938 0.678,9.763 0.314,2.972 0.919,4.515 1.672,4.515 L 3.32,-205.811 c 3.159,0 4.626,-1.138 4.626,-3.45 L 7.762,-663.54 c 0,-3.083 2.773,-4.477 8.076,-4.477 l 67.706,-0.036 c 0.733,0 0.989,-1.541 0.989,-4.404 v -9.8 -8.81 c 0,-2.351 -0.256,-3.526 -0.989,-3.526 z" /></g><g
           transform="translate(6460.873,7105.376)"
           id="g56"><path
             id="path58"
             style="fill:#7b3333;fill-opacity:1;fill-rule:nonzero;stroke:none"
             d="m 0,0 c -2.404,10.609 -7.414,20.262 -14.994,28.669 -7.708,8.366 -16.757,15.377 -27.622,21.249 -10.662,5.692 -21.95,10.17 -33.786,13.179 -11.766,3.086 -23.494,4.515 -34.946,4.515 -15.987,0 -29.291,-1.615 -39.588,-5.028 -10.371,-3.451 -20.536,-9.396 -30.393,-17.876 -15.288,-15.235 -26.079,-40.266 -32.189,-75.138 -6.115,-34.686 -9.252,-78.881 -9.252,-132.474 0,-54.287 3.084,-97.38 9.194,-129.46 5.984,-32.191 16.703,-55.868 32.121,-71.177 4.494,-4.55 8.126,-8.404 10.844,-11.449 2.588,-3.121 5.488,-5.396 8.701,-6.939 3.009,-1.542 6.66,-2.717 10.79,-3.487 4.26,-0.697 10.536,-1.1 18.923,-1.1 25.345,0 46.488,3.303 63.631,9.653 17.27,6.572 30.83,14.903 40.869,25.363 9.804,10.206 16.908,21.328 21.218,33.11 4.186,11.856 6.351,23.125 6.351,33.914 z m 3.083,-402.667 c -2.165,0 -3.266,1.062 -3.266,3.523 v 50.397 c -1.614,-4.625 -5.688,-10.496 -12.093,-17.729 -6.535,-7.34 -15.29,-14.353 -26.396,-21.253 -11.158,-6.864 -24.462,-12.884 -40.191,-17.765 -15.6,-4.957 -33.476,-7.489 -53.334,-7.489 -35.936,0 -68.254,7.122 -96.925,21.292 -28.611,14.168 -53.149,32.996 -73.433,56.855 -20.148,23.714 -35.878,50.656 -46.908,80.864 -11.158,30.174 -16.592,60.86 -16.592,92.318 0,32.229 6.59,63.466 20.044,94.114 13.437,30.613 31.62,58.215 54.49,82.552 23.015,24.446 49.882,44.196 80.955,59.099 30.89,14.864 64.073,22.28 99.218,22.28 24.41,-0.111 45.68,-4.11 63.743,-12.04 C -29.732,76.239 -13.821,64.603 0,49.224 l 0.111,359.171 c 0,2.972 -2.404,4.55 -6.957,4.55 h -65.483 c -0.681,0 -1.23,1.395 -1.673,4.074 -0.292,2.609 -0.549,5.506 -0.494,8.59 0,3.856 0.202,7.306 0.494,10.389 0.57,2.972 0.992,4.514 1.673,4.514 l 204.325,-0.073 c 3.028,0 4.682,-1.176 4.682,-3.45 l -0.299,-807.612 c 0,-3.047 2.465,-4.588 7.895,-4.588 h 67.687 c 0.732,0 1.119,-1.617 1.119,-4.59 v -10.35 -9.139 c 0,-2.386 -0.387,-3.489 -1.119,-3.489 z" /></g><g
           transform="translate(7141.1152,7105.1182)"
           id="g60"><path
             id="path62"
             style="fill:#7b3333;fill-opacity:1;fill-rule:nonzero;stroke:none"
             d="m 0,0 c -2.297,10.646 -7.158,20.262 -14.813,28.634 -7.634,8.366 -16.884,15.377 -27.621,21.287 -10.789,5.727 -22.005,10.132 -33.843,13.176 -11.838,3.087 -23.621,4.554 -34.963,4.554 -16.076,0.075 -29.274,-1.579 -39.569,-5.028 -10.369,-3.489 -20.537,-9.397 -30.464,-17.876 -15.233,-15.233 -25.954,-40.267 -32.12,-75.139 -6.169,-34.724 -9.122,-78.918 -9.195,-132.4 0,-54.399 3.026,-97.491 9.067,-129.536 6.167,-32.157 16.832,-55.94 32.117,-71.212 4.514,-4.586 8.205,-8.441 10.974,-11.522 2.534,-3.084 5.434,-5.36 8.461,-6.939 3.139,-1.54 6.827,-2.645 10.976,-3.378 4.243,-0.808 10.536,-1.137 18.849,-1.137 25.345,0 46.49,3.303 63.629,9.728 17.324,6.459 30.78,14.829 40.89,25.215 9.859,10.243 16.942,21.401 21.2,33.22 4.203,11.82 6.349,23.088 6.349,33.954 z m 3.191,-402.738 c -2.09,0 -3.32,1.208 -3.32,3.556 v 50.51 c -1.597,-4.699 -5.617,-10.497 -11.966,-17.838 -6.591,-7.306 -15.346,-14.354 -26.448,-21.255 -11.211,-6.864 -24.539,-12.772 -40.191,-17.692 -15.676,-5.028 -33.479,-7.526 -53.41,-7.526 -35.881,0 -68.239,7.159 -96.85,21.365 -28.667,14.06 -53.096,32.963 -73.375,56.784 -20.224,23.713 -35.935,50.616 -47.039,80.864 -11.029,30.21 -16.59,60.896 -16.59,92.317 0.073,32.266 6.661,63.5 20.041,94.151 13.434,30.613 31.639,58.177 54.508,82.44 22.996,24.449 50.066,44.235 81.139,59.209 30.761,14.83 63.923,22.209 99.07,22.209 24.484,0 45.627,-4.075 63.631,-12.08 C -29.66,76.239 -13.82,64.567 0,49.189 l 0.107,359.168 c 0,3.048 -2.275,4.589 -6.843,4.589 l -65.338,0.037 c -0.88,0 -1.432,1.358 -1.668,4.037 -0.496,2.569 -0.752,5.58 -0.68,8.553 0,3.927 0.184,7.342 0.68,10.387 0.365,3.011 0.861,4.588 1.668,4.588 l 204.197,-0.108 c 2.955,0 4.553,-1.177 4.553,-3.414 l -0.37,-807.648 c 0,-3.047 2.663,-4.515 8.151,-4.515 l 67.634,-0.11 c 0.729,0 1.046,-1.541 1.046,-4.625 v -10.279 -9.065 c 0,-2.46 -0.317,-3.522 -1.046,-3.522 z" /></g><g
           transform="translate(7776.5195,6702.1934)"
           id="g64"><path
             id="path66"
             style="fill:#7b3333;fill-opacity:1;fill-rule:nonzero;stroke:none"
             d="m 0,0 c -1.542,0 -2.516,1.395 -2.828,3.818 -0.623,2.716 -0.679,5.434 -0.679,8.333 0,3.595 0.056,6.901 0.679,9.875 0.312,2.898 1.286,4.477 2.828,4.477 l 65.357,-0.039 c 4.568,0 6.916,1.398 6.916,4.479 l 0.11,322.429 c 0,40.486 -5.305,70.072 -16.151,88.94 -10.535,18.646 -26.94,28.006 -49.205,28.006 -34.394,0 -62.144,-8.7 -83.158,-26.355 -20.976,-17.619 -38.414,-48.198 -52.285,-91.727 l -0.186,-321.147 c 0,-3.118 2.459,-4.549 7.026,-4.549 l 66.402,-0.037 c 0.867,0 1.176,-1.504 1.176,-4.406 V 12.295 3.524 C -53.998,1.175 -54.307,0 -55.174,0 l -286.82,0.111 c -0.678,0 -1.176,1.395 -1.599,3.928 -0.44,2.641 -0.675,5.321 -0.675,8.221 0,3.672 0.235,6.9 0.675,9.912 0.423,2.899 0.921,4.479 1.599,4.479 h 67.762 c 6.164,0 9.248,1.393 9.248,4.478 l 0.312,778.832 c 0,3.084 -3.156,4.588 -9.25,4.588 h -67.762 c -0.752,0 -1.227,1.431 -1.611,4.04 -0.424,2.715 -0.684,5.616 -0.684,8.66 0,3.856 0.26,7.158 0.684,10.279 0.384,3.082 0.932,4.625 1.611,4.625 l 210.055,-0.111 c 2.346,0 3.395,-1.174 3.395,-3.339 l -0.182,-430.199 c 10.789,32.155 29.16,54.948 55.662,68.79 26.447,13.69 52.912,20.627 79.781,20.627 62.641,-0.073 112.028,-16.774 147.91,-50.067 35.952,-33.29 53.959,-80.46 53.959,-141.649 l -0.13,-275.299 c 0,-3.044 2.716,-4.552 8.02,-4.552 h 65.298 c 0.736,0 1.545,-1.576 2.407,-4.438 0.678,-2.976 1.101,-6.241 1.101,-9.876 0,-2.898 -0.423,-5.616 -1.101,-8.297 -0.862,-2.494 -1.671,-3.853 -2.407,-3.853 z" /></g><g
           transform="translate(8350.1641,7396.5293)"
           id="g68"><path
             id="path70"
             style="fill:#7b3333;fill-opacity:1;fill-rule:nonzero;stroke:none"
             d="m 0,0 c -16.022,-16.408 -35.146,-24.629 -57.15,-24.593 -24.594,0 -45.006,8.26 -61.1,24.631 -15.912,16.444 -23.934,36.191 -23.934,59.132 0,24.485 8.022,45.077 23.989,61.961 16.097,16.774 36.558,25.219 61.174,25.219 22.002,-0.076 41.109,-8.481 57.076,-25.255 C 16.152,104.172 24.172,83.581 24.172,59.099 24.172,36.192 16.152,16.407 0,0 m -203.205,-694.48 c -0.756,0 -1.359,1.357 -1.746,3.887 -0.365,2.681 -0.66,5.324 -0.66,8.259 0,3.673 0.295,6.866 0.66,9.914 0.387,2.862 0.99,4.403 1.746,4.403 h 68.807 c 5.283,0 8,1.469 8,4.514 l 0.183,426.711 c 0,3.048 -2.771,4.625 -8.002,4.625 h -68.879 c -0.679,0 -1.286,1.283 -1.652,3.853 -0.439,2.571 -0.623,5.288 -0.623,8.26 0,3.707 0.184,6.976 0.623,9.765 0.366,3.044 0.973,4.586 1.78,4.586 L 3.45,-205.849 c 2.954,0 4.624,-1.173 4.624,-3.412 L 7.947,-663.54 c 0,-3.118 2.66,-4.477 7.891,-4.477 l 67.761,-0.072 c 0.678,0 1.045,-1.58 1.045,-4.406 v -9.801 -8.81 c 0,-2.348 -0.367,-3.45 -1.045,-3.45 z" /></g><g
           transform="translate(5540.2969,5618.6602)"
           id="g72"><path
             id="path74"
             style="fill:#7b3333;fill-opacity:1;fill-rule:nonzero;stroke:none"
             d="m 0,0 c -0.934,0 -1.43,1.249 -1.852,3.781 -0.312,2.57 -0.494,5.252 -0.494,8.298 0,3.631 0.182,6.863 0.494,9.761 0.422,3.011 0.918,4.518 1.852,4.518 l 66.403,-0.075 c 3.872,0 5.857,1.542 5.857,4.624 l 0.18,322.391 c 0,40.489 -5.487,69.999 -16.096,88.831 -10.66,18.758 -26.811,28.155 -48.21,28.155 -35.148,0 -63.448,-8.81 -84.956,-26.43 -21.403,-17.545 -38.91,-48.123 -52.657,-91.767 l -0.128,-321.105 c 0,-3.082 2.22,-4.624 6.716,-4.624 h 67.889 c 0.624,0 1.047,-1.507 1.047,-4.296 V 12.189 3.451 C -53.955,1.067 -54.378,0 -55.002,0 l -286.825,0.075 c -0.789,0 -1.54,1.247 -1.834,3.781 -0.441,2.68 -0.569,5.36 -0.569,8.404 0,3.525 0.128,6.83 0.569,9.802 0.294,2.937 1.045,4.367 1.834,4.367 h 66.347 c 6.222,0 9.195,1.58 9.195,4.59 l 0.112,426.71 c 0,3.046 -2.901,4.625 -9.122,4.625 h -66.402 c -0.734,0 -1.541,1.284 -1.854,3.854 -0.366,2.608 -0.551,5.286 -0.423,8.258 0,3.673 0.111,6.937 0.423,9.803 0.367,3.007 1.176,4.476 1.854,4.476 l 208.765,-0.037 c 2.279,0 3.506,-1.247 3.506,-3.561 l -0.053,-75.651 c 5.176,16.042 12.828,29.807 22.868,41.259 9.927,11.488 20.978,20.628 33.365,27.565 12.262,6.827 25.328,11.968 39.514,15.453 14.242,3.415 28.172,5.104 41.937,5.104 62.568,0 111.824,-16.701 147.284,-49.847 35.643,-33.44 53.39,-80.717 53.334,-142.127 L 208.768,30.8 c 0,-3.087 2.642,-4.629 7.948,-4.629 h 66.585 c 0.623,0 1.303,-1.354 1.723,-4.439 0.314,-2.863 0.554,-6.168 0.554,-9.801 0,-2.972 -0.24,-5.69 -0.554,-8.259 -0.42,-2.532 -1.1,-3.78 -1.723,-3.78 z" /></g><g
           transform="translate(6327.7578,5944.6489)"
           id="g76"><path
             id="path78"
             style="fill:#7b3333;fill-opacity:1;fill-rule:nonzero;stroke:none"
             d="m 0,0 c -12.645,-12.625 -28.924,-18.94 -48.837,-18.94 -22.134,0 -38.726,4.773 -49.757,14.28 -11.103,9.726 -16.644,21.657 -16.644,36.266 0,8.405 0.919,15.049 2.772,20.005 2.035,5.028 3.816,9.431 5.798,13.287 1.912,3.856 3.891,7.78 5.801,11.965 1.908,4.261 2.825,9.766 2.825,16.849 0,12.517 -3.266,22.686 -9.675,30.54 -6.602,7.782 -15.175,11.709 -25.892,11.709 -6.976,0 -13.877,-1.285 -21.219,-3.927 -7.322,-2.826 -14.35,-8.591 -21.271,-17.287 -6.772,-8.921 -13.672,-22.026 -20.592,-39.351 -6.901,-17.215 -13.799,-40.487 -20.704,-69.705 l -0.125,-300.954 c 0,-1.653 0.125,-2.716 0.547,-3.45 0.5,-0.737 2.536,-1.175 6.407,-1.175 l 64.254,-0.075 c 1.414,0 2.589,-1.395 3.453,-4.367 0.623,-3.011 1.045,-6.205 1.045,-9.8 0,-3.011 -0.422,-5.69 -1.045,-8.334 -0.864,-2.569 -2.039,-3.853 -3.453,-3.853 l -283.372,0.146 c -0.789,0 -1.412,1.25 -1.725,3.782 -0.423,2.641 -0.677,5.36 -0.677,8.331 0,3.634 0.254,6.867 0.677,9.802 0.313,2.972 0.936,4.439 1.725,4.439 h 66.475 c 6.094,0 9.25,1.542 9.25,4.628 l 0.186,426.673 c 0,3.008 -3.159,4.624 -9.198,4.624 H -429.5 c -0.79,0 -1.468,1.212 -1.781,3.854 -0.438,2.533 -0.678,5.248 -0.551,8.224 0,3.707 0.186,6.902 0.605,9.762 0.314,3.047 0.995,4.552 1.799,4.552 l 208.64,-0.074 c 2.403,-0.881 3.393,-1.981 3.393,-3.525 V 83.214 c 7.032,20.299 15.034,36.596 24.101,48.49 9.193,12.041 18.865,21.106 28.851,27.197 9.876,6.131 20.406,10.133 31.456,12.114 11.159,1.873 22.374,2.902 33.897,2.864 18.996,0 36.141,-3.45 50.986,-10.388 14.866,-6.901 27.329,-15.783 37.314,-26.538 9.854,-10.864 17.252,-22.907 22.314,-36.082 4.992,-13.4 7.453,-26.027 7.453,-38.394 C 18.977,33.477 12.756,12.591 0,0" /></g><g
           transform="translate(6638.1289,6312.7754)"
           id="g80"><path
             id="path82"
             style="fill:#7b3333;fill-opacity:1;fill-rule:nonzero;stroke:none"
             d="m 0,0 c -16.041,-16.551 -35.275,-24.626 -57.408,-24.626 -24.465,0 -44.69,8.075 -60.734,24.626 -16.092,16.41 -24.095,36.159 -24.095,59.063 0.053,24.372 8.003,45.111 24.095,61.96 16.099,16.884 36.269,25.18 60.862,25.18 22.134,0 41.239,-8.296 57.407,-25.18 C 16.205,104.099 24.098,83.361 24.098,58.953 24.098,36.048 16.205,16.335 0,0 m -203.279,-694.444 c -0.809,0 -1.36,1.25 -1.674,3.78 -0.42,2.532 -0.676,5.288 -0.676,8.295 0,3.636 0.256,6.901 0.676,9.802 0.314,3.011 0.865,4.442 1.674,4.442 l 68.75,-0.035 c 5.304,0 8.004,1.501 8.004,4.623 l 0.183,426.71 c 0,3.046 -2.701,4.588 -8.004,4.588 l -68.752,0.039 c -0.806,0 -1.355,1.283 -1.668,3.852 -0.496,2.533 -0.735,5.25 -0.679,8.258 0,3.6 0.183,6.828 0.679,9.689 0.366,3.084 0.932,4.625 1.725,4.625 l 206.49,-0.181 c 2.956,0 4.626,-1.175 4.626,-3.451 L 7.816,-663.647 c 0,-3.047 2.664,-4.625 8.096,-4.625 h 67.633 c 0.731,0 1.101,-1.393 1.101,-4.295 v -9.838 -8.773 c 0,-2.383 -0.37,-3.375 -1.101,-3.375 z" /></g><g
           transform="translate(7105.418,5635.1416)"
           id="g84"><path
             id="path86"
             style="fill:#7b3333;fill-opacity:1;fill-rule:nonzero;stroke:none"
             d="m 0,0 c -23.385,-18.205 -53.334,-27.457 -90.152,-27.457 -42.725,0 -73.118,9.472 -91.069,28.193 -18.058,18.681 -27.052,46.762 -27.052,84.35 l 0.24,354.473 c 0,2.9 -2.643,4.516 -8.02,4.516 h -84.901 c -0.866,0 -1.415,1.359 -1.726,3.999 -0.497,2.68 -0.552,5.58 -0.552,8.629 0,3.851 0.128,7.338 0.626,10.386 0.313,2.971 0.786,4.552 1.652,4.552 h 84.901 c 5.43,0 8.02,1.541 8.02,4.589 l 0.055,96.317 c 12.956,0.77 25.528,4.955 37.806,12.589 12.261,7.599 23.182,16.591 32.801,26.98 9.484,10.242 17.32,20.995 23.416,32.042 6.236,11.161 10.367,20.851 12.648,29.255 1.593,1.616 10.054,1.616 25.27,-0.036 l -0.109,-197.223 c 0,-3.081 3.871,-4.624 11.58,-4.624 h 99.692 c 0.81,0 1.249,-1.578 1.249,-4.513 v -10.426 c -0.131,-3.083 -0.131,-6.13 -0.131,-9.103 0,-2.312 -0.363,-3.562 -1.118,-3.562 l -99.749,0.073 c -7.652,0 -11.523,-1.577 -11.523,-4.514 L -76.277,45.958 c 0,-10.682 3.709,-18.904 10.923,-24.632 7.137,-5.689 16.644,-8.734 28.041,-8.734 16.096,0 29.659,6.9 40.764,20.775 11.084,13.764 20.405,31.313 28.042,52.748 -0.681,0 -0.128,-0.553 1.726,-1.762 1.907,-1.137 4.074,-2.423 6.295,-4.04 2.404,-1.54 4.257,-2.789 5.8,-4.108 1.54,-1.066 2.329,-1.986 2.329,-2.682 C 39.258,42.984 23.289,18.429 0,0" /></g><g
           transform="translate(7696.8662,6080.0591)"
           id="g88"><path
             id="path90"
             style="fill:#7b3333;fill-opacity:1;fill-rule:nonzero;stroke:none"
             d="m 0,0 c -4.682,0 -8.63,-2.716 -12.079,-8.001 -3.522,-5.359 -9.375,-19.088 -17.819,-41.332 l -267.589,-683.655 c -12.942,-34.357 -29.787,-58.399 -50.377,-72.125 -20.703,-13.876 -43.207,-20.665 -67.689,-20.665 -12.278,0 -23.676,2.787 -34.413,8.072 -10.79,5.397 -20.023,12.666 -28.115,21.768 -7.945,9.176 -14.428,19.711 -18.979,31.605 -4.568,11.856 -6.974,23.823 -6.974,36.044 0,19.894 6.224,37.038 18.502,51.131 12.259,14.209 27.987,21.144 47.039,21.144 17.508,0 31.437,-4.81 41.312,-14.242 9.983,-9.653 14.866,-20.85 14.866,-33.952 0,-6.754 -1.67,-12.813 -4.625,-17.73 -3.083,-4.92 -6.293,-9.982 -9.747,-14.906 -3.451,-4.99 -6.421,-9.87 -9.119,-14.971 -2.716,-4.957 -3.949,-10.796 -3.949,-17.731 0,-6.165 0.498,-12.04 1.6,-17.876 1.173,-5.651 5.174,-8.553 11.965,-8.553 4.681,0 9.855,0.404 15.47,1.103 5.856,0.842 11.897,3.153 18.5,6.936 6.353,3.816 12.885,9.653 19.546,17.693 6.351,8.002 12.702,19.782 18.87,34.871 l 102.207,261.2 -228.055,468.63 c -0.808,1.505 -1.599,2.753 -2.351,4.037 -0.734,1.028 -3.082,1.689 -6.826,1.689 h -67.706 c -1.597,0 -2.276,4.402 -2.276,13.067 0,8.848 0.736,13.327 2.276,13.327 l 308.646,-0.15 c 2.954,0 4.495,-4.439 4.495,-13.25 0,-8.737 -1.541,-13.103 -4.625,-13.103 l -72.253,0.074 c -6.225,0 -8.022,-1.909 -5.674,-5.764 L -163.142,-321.18 -56.29,-48.159 c 9.176,22.136 14.002,35.79 14.367,40.708 C -41.627,-2.496 -43.72,0 -48.216,0 L -114.8,0.075 c -1.488,0 -2.349,4.366 -2.277,13.103 0,8.736 0.789,13.25 2.405,13.25 L 72.256,26.356 c 2.294,0 3.393,-4.514 3.393,-13.289 C 75.595,4.369 74.477,-0.039 72.256,-0.039 Z" /></g><g
           transform="translate(8092.5039,5871.1992)"
           id="g92"><path
             id="path94"
             style="fill:#7b3333;fill-opacity:1;fill-rule:nonzero;stroke:none"
             d="m 0,0 c -14.554,-8.588 -29.714,-13.689 -45.367,-15.489 -15.785,-2.02 -32.322,-4 -49.885,-6.312 -10.738,-2.277 -19.73,-4.957 -26.998,-8.114 -7.232,-3.047 -13.088,-8.367 -17.768,-15.928 -4.57,-7.675 -7.892,-19.2 -9.798,-34.541 -1.909,-15.087 -2.957,-35.972 -2.957,-61.887 0,-12.188 0.496,-23.678 1.287,-34.467 0.678,-10.648 3.029,-20.042 6.845,-27.935 3.764,-8.222 9.746,-14.426 17.766,-19.124 8.002,-4.586 19.787,-6.826 34.889,-6.826 27.438,-0.076 49.754,12.994 66.53,39.057 16.886,26.022 25.399,57.296 25.399,94.002 z m 178.688,-248.5 c -18.32,-9.506 -38.856,-14.241 -61.852,-14.241 -13.01,0 -25.822,1.834 -38.471,5.689 -12.57,3.852 -24.407,9.178 -35.64,16.113 -10.974,6.829 -20.096,14.867 -27.362,23.97 -7.215,9.323 -12.097,19.233 -14.371,29.914 -8.334,-23.674 -22.137,-42.249 -41.24,-55.535 -19.125,-13.435 -43.718,-20.077 -73.506,-20.077 -20.646,0 -41.238,2.091 -62.017,6.275 -20.59,4.184 -39.272,10.939 -56.231,20.079 -16.648,9.176 -30.392,21.436 -41.056,36.706 -10.79,15.27 -16.17,34.429 -16.17,57.447 0,29.768 6.605,53.993 19.494,72.751 13.064,18.793 28.664,33.291 46.613,43.603 17.878,10.391 36.562,17.328 55.611,21.182 19.108,3.707 34.709,6.462 47.096,8.074 33.678,3.011 61.775,6.426 84.846,10.205 22.812,3.856 34.339,11.931 34.339,24.153 l 0.057,87.214 c 0,22.943 -1.545,40.672 -4.498,53.261 -3.141,12.702 -7.709,22.025 -13.748,28.118 -6.295,6.167 -13.691,9.69 -22.442,10.901 -8.812,1.176 -18.615,1.726 -29.164,1.762 h -23.054 c -7.581,0 -14.242,-0.99 -19.986,-2.937 -5.983,-1.834 -10.48,-5.284 -13.875,-10.312 -3.375,-4.92 -5.047,-12.774 -5.047,-23.567 0,-10.573 1.357,-19.015 4.496,-25.145 3.156,-6.202 4.496,-14.24 4.496,-24.151 0,-12.222 -4.369,-22.904 -13.068,-32.008 -8.809,-9.14 -23.915,-13.765 -45.313,-13.765 -19.913,0 -34.395,5.873 -43.588,17.765 -9.25,11.929 -13.802,25.035 -13.802,39.606 0.054,11.492 4.185,23.271 12.57,35.605 8.443,12.226 20.226,23.272 35.57,33.146 15.416,9.985 33.107,18.097 53.516,24.152 20.171,6.094 42.546,9.214 67.085,9.214 61.903,0 111.659,-16.811 149.155,-50.104 37.291,-33.109 56.105,-85.781 56.105,-157.689 l -0.13,-223.688 c 0,-25.952 8.313,-39.056 25.273,-39.056 9.801,0 17.875,2.131 24.044,6.35 6.056,4.185 9.872,9.326 11.468,15.491 0,0.697 0.863,0.33 2.846,-1.175 1.964,-1.579 4.002,-3.193 6.351,-5.102 2.272,-1.908 4.256,-3.854 5.723,-5.728 1.671,-2.091 2.349,-3.302 2.349,-4.073 -3.816,-10.719 -15.102,-20.777 -33.472,-30.393" /></g><g
           transform="translate(8712.9492,5617.4141)"
           id="g96"><path
             id="path98"
             style="fill:#7b3333;fill-opacity:1;fill-rule:nonzero;stroke:none"
             d="m 0,0 c -1.67,0 -2.59,1.246 -2.973,3.818 -0.422,2.605 -0.605,5.286 -0.605,8.295 0,3.634 0.183,6.903 0.605,9.801 0.383,3.009 1.303,4.442 2.973,4.442 l 48.141,-0.075 c 6.109,0 7.965,1.541 5.617,4.626 l -181.019,230.626 -0.128,-230.478 c 0,-3.084 2.219,-4.664 6.791,-4.664 l 66.584,-0.035 V 0 l -286.765,0.146 c -0.789,0 -1.231,1.249 -1.653,3.781 -0.568,2.643 -0.752,5.323 -0.752,8.37 0,3.56 0.184,6.827 0.752,9.761 0.422,3.013 0.864,4.407 1.653,4.407 h 68.752 c 5.302,0 8.129,1.542 8.129,4.627 l 0.255,778.759 c 0,3.154 -2.717,4.625 -8.019,4.625 l -68.752,0.075 c -0.789,0 -1.283,1.391 -1.725,3.963 -0.548,2.715 -0.679,5.614 -0.679,8.626 0,3.852 0.131,7.192 0.679,10.315 0.442,3.045 0.936,4.587 1.725,4.587 l 206.365,-0.146 c 4.75,0 6.973,-1.104 6.973,-3.344 L -127.261,268.433 39.02,411.66 c 12.334,11.562 22.079,20.373 29.419,26.466 7.083,6.13 12.26,11.012 15.401,14.352 3.023,3.414 4.566,5.543 4.566,6.275 0,0.735 -1.174,1.176 -3.32,1.176 H 22.998 c -0.752,0 -1.36,1.394 -1.615,4.002 -0.496,2.68 -0.608,5.615 -0.608,8.698 0,3.853 0.187,7.159 0.608,10.279 0.309,3.046 0.935,4.55 1.668,4.55 l 184.595,-0.108 v -4.59 -10.24 -9.289 -3.375 l -66.454,0.073 c -2.35,0 -4.938,-0.441 -7.524,-1.21 -2.719,-0.698 -6.609,-2.827 -11.472,-6.241 -4.938,-3.415 -11.231,-8.518 -18.925,-15.015 -7.595,-6.387 -17.947,-14.94 -30.83,-25.803 L -29.84,325.769 202.969,30.869 c 3.011,-3.084 7.267,-4.624 12.701,-4.624 h 90.496 c 0.756,0 1.433,-1.433 1.672,-4.442 0.439,-2.899 0.629,-6.166 0.629,-9.801 0,-3.045 -0.19,-5.764 -0.629,-8.294 -0.239,-2.533 -0.916,-3.781 -1.672,-3.781 z" /></g><g
           transform="translate(9339.2305,5870.6504)"
           id="g100"><path
             id="path102"
             style="fill:#7b3333;fill-opacity:1;fill-rule:nonzero;stroke:none"
             d="m 0,0 c -14.551,-8.517 -29.474,-13.546 -45.257,-15.455 -15.782,-2.018 -32.358,-3.999 -49.867,-6.312 -10.733,-2.166 -19.728,-4.882 -27.067,-8.037 -7.215,-3.048 -13.141,-8.334 -17.825,-15.969 -4.494,-7.634 -7.763,-19.196 -9.744,-34.578 -1.963,-15.122 -2.898,-35.934 -2.898,-61.813 0,-12.26 0.494,-23.711 1.174,-34.504 0.806,-10.644 3.027,-20.079 6.899,-28.005 3.761,-8.113 9.821,-14.355 17.769,-19.05 8.019,-4.554 19.673,-6.866 34.961,-6.866 27.437,0 49.682,13.031 66.584,39.055 C -8.497,-165.509 0,-134.197 0,-97.491 Z m 178.742,-248.429 c -18.186,-9.506 -38.834,-14.241 -61.832,-14.241 -12.955,0 -25.896,1.799 -38.486,5.652 -12.57,3.854 -24.356,9.214 -35.439,16.188 -11.159,6.791 -20.354,14.83 -27.569,23.932 -7.268,9.324 -11.965,19.197 -14.369,29.953 -8.313,-23.677 -22.133,-42.325 -41.369,-55.612 -18.866,-13.397 -43.532,-20.078 -73.373,-20.002 -20.592,0 -41.242,2.017 -61.887,6.277 -20.721,4.184 -39.459,10.864 -56.289,20.002 -16.721,9.251 -30.522,21.511 -41.258,36.781 -10.666,15.234 -16.096,34.395 -16.096,57.37 0.127,29.773 6.606,54.072 19.543,72.754 13.07,18.868 28.616,33.33 46.672,43.605 17.953,10.39 36.508,17.403 55.504,21.182 19.049,3.706 34.705,6.532 46.985,8.149 33.71,2.935 62.013,6.386 85.193,10.24 22.761,3.706 34.228,11.857 34.228,24.08 l 0.055,87.176 c 0,22.942 -1.598,40.635 -4.568,53.298 -3.012,12.701 -7.692,21.989 -13.803,28.118 -6.113,6.203 -13.563,9.689 -22.263,10.938 -8.807,1.138 -18.682,1.762 -29.344,1.762 h -22.942 c -7.689,0 -14.297,-0.992 -20.098,-3.011 -5.783,-1.835 -10.35,-5.21 -13.8,-10.24 -3.451,-4.956 -5.119,-12.847 -5.119,-23.565 0,-10.607 1.484,-18.979 4.676,-25.145 3.031,-6.165 4.388,-14.242 4.388,-24.187 0,-12.261 -4.312,-22.869 -13.198,-31.974 -8.753,-9.213 -23.857,-13.838 -45.183,-13.763 -19.859,0 -34.467,5.835 -43.533,17.728 -9.306,11.932 -13.875,24.997 -13.875,39.533 0,11.526 4.256,23.347 12.645,35.679 8.495,12.224 20.278,23.272 35.513,33.218 15.397,9.949 33.162,18.062 53.516,24.044 20.154,6.167 42.545,9.251 67.01,9.251 62.033,0 111.716,-16.777 149.08,-50.068 37.495,-33.147 56.107,-85.857 56.052,-157.728 l -0.075,-223.724 c 0,-25.954 8.517,-39.056 25.419,-39.056 9.858,0 17.875,2.127 23.912,6.424 6.225,4.148 10.061,9.286 11.602,15.453 0,0.734 1.045,0.293 2.771,-1.138 2.094,-1.577 4,-3.265 6.35,-5.213 2.332,-1.871 4.133,-3.854 5.728,-5.616 1.54,-2.092 2.348,-3.413 2.348,-4.072 -3.943,-10.758 -14.992,-20.812 -33.422,-30.432" /></g><g
           transform="translate(9617.9785,5617.0469)"
           id="g104"><path
             id="path106"
             style="fill:#7b3333;fill-opacity:1;fill-rule:nonzero;stroke:none"
             d="m 0,0 c -0.676,0 -1.486,1.285 -1.854,3.819 -0.31,2.64 -0.494,5.285 -0.494,8.331 0,3.598 0.184,6.825 0.494,9.801 0.368,2.937 1.178,4.367 1.854,4.367 h 67.633 c 5.306,0 7.967,1.578 7.967,4.625 l 0.292,778.797 c 0,3.158 -2.644,4.624 -7.948,4.624 l -67.632,0.075 c -0.753,0 -1.429,1.395 -1.851,3.964 -0.369,2.68 -0.441,5.578 -0.441,8.625 0,3.856 0.126,7.195 0.441,10.278 0.422,3.083 1.098,4.626 1.851,4.626 l 206.42,-0.111 c 3.082,0 4.569,-1.173 4.569,-3.45 L 211.043,30.906 c 0,-3.121 1.799,-4.588 5.672,-4.588 l 66.586,-0.074 c 0.752,0 1.431,-1.467 2.222,-4.442 0.75,-2.971 1.227,-6.165 1.227,-9.763 0,-3.009 -0.477,-5.726 -1.227,-8.367 -0.791,-2.496 -1.47,-3.782 -2.222,-3.782 z" /></g><g
           transform="translate(10286.695,5870.2817)"
           id="g108"><path
             id="path110"
             style="fill:#7b3333;fill-opacity:1;fill-rule:nonzero;stroke:none"
             d="m 0,0 c -14.498,-8.478 -29.66,-13.58 -45.201,-15.415 -15.713,-2.017 -32.305,-4.002 -49.868,-6.314 -10.792,-2.238 -19.732,-4.955 -27.144,-8.111 -7.141,-3.046 -12.995,-8.335 -17.693,-15.895 -4.551,-7.707 -7.82,-19.27 -9.855,-34.576 -1.854,-15.16 -2.718,-35.973 -2.771,-61.812 0,-12.26 0.294,-23.714 1.154,-34.579 0.755,-10.645 2.976,-20.078 6.921,-27.936 3.687,-8.185 9.67,-14.385 17.744,-19.083 7.966,-4.519 19.62,-6.831 34.836,-6.831 27.567,0 49.828,12.994 66.587,39.021 16.848,26.025 25.217,57.336 25.217,94.077 z m 178.85,-248.428 c -18.244,-9.469 -38.834,-14.276 -61.903,-14.276 -12.997,0.107 -25.769,1.835 -38.396,5.724 -12.645,3.855 -24.483,9.214 -35.642,16.115 -11.03,6.792 -20.224,14.94 -27.495,24.006 -7.155,9.324 -12.018,19.198 -14.241,29.916 -8.459,-23.713 -22.206,-42.285 -41.442,-55.573 -18.993,-13.398 -43.532,-20.081 -73.373,-20.081 -20.519,0 -41.241,2.06 -61.888,6.278 -20.591,4.184 -39.457,10.939 -56.306,20.08 -16.7,9.177 -30.504,21.437 -41.239,36.742 -10.611,15.269 -15.969,34.431 -15.969,57.374 0.056,29.766 6.478,54.104 19.492,72.785 12.939,18.833 28.539,33.294 46.543,43.644 18.004,10.352 36.558,17.288 55.554,21.145 19.105,3.742 34.705,6.497 47.04,8.148 33.788,2.899 62.013,6.35 84.955,10.167 22.944,3.782 34.283,11.857 34.283,24.08 l 0.131,87.213 c 0,22.906 -1.54,40.634 -4.568,53.261 -3.088,12.773 -7.654,22.061 -13.696,28.155 -6.09,6.166 -13.616,9.728 -22.443,10.976 -8.866,1.137 -18.557,1.723 -29.347,1.723 h -22.74 c -7.708,0 -14.5,-0.991 -20.095,-2.936 -5.8,-1.874 -10.424,-5.324 -13.951,-10.352 -3.267,-4.881 -5.101,-12.773 -5.101,-23.529 0,-10.643 1.466,-19.048 4.627,-25.143 3.137,-6.165 4.604,-14.241 4.604,-24.227 0,-12.149 -4.554,-22.829 -13.124,-31.97 -8.881,-9.177 -23.983,-13.766 -45.311,-13.766 -19.914,0 -34.596,5.913 -43.663,17.805 -9.248,11.93 -13.805,24.993 -13.805,39.531 0.06,11.525 4.132,23.309 12.649,35.606 8.555,12.223 20.151,23.346 35.568,33.219 15.288,9.984 33.165,18.059 53.261,24.079 20.354,6.203 42.672,9.251 67.155,9.251 61.96,-0.037 111.713,-16.849 149.192,-50.067 37.365,-33.184 56.102,-85.857 56.05,-157.728 l -0.054,-223.689 c 0,-25.95 8.387,-39.054 25.271,-39.054 9.927,0 17.878,2.128 24.041,6.387 6.167,4.148 9.987,9.285 11.472,15.417 0,0.805 1.047,0.402 2.899,-1.103 1.965,-1.652 4.075,-3.229 6.299,-5.174 2.329,-1.838 4.181,-3.892 5.723,-5.69 1.542,-2.021 2.404,-3.341 2.404,-4.076 -3.946,-10.678 -15.103,-20.773 -33.421,-30.393" /></g><g
           transform="translate(5873.5352,4478.7461)"
           id="g112"><path
             id="path114"
             style="fill:#7b3333;fill-opacity:1;fill-rule:nonzero;stroke:none"
             d="m 0,0 v 26.246 h 68.88 c 5.286,0 8.132,1.545 8.132,4.551 l 0.181,322.32 c 0,40.633 -6.093,70.182 -17.875,89.014 -11.838,18.717 -27.805,28.075 -47.662,28.075 -25.089,0 -46.543,-4.365 -64.237,-13.211 -17.509,-8.847 -31.95,-20.043 -43.038,-33.808 -10.974,-13.691 -18.992,-29.032 -24.045,-45.88 -5.063,-16.848 -7.596,-33.219 -7.596,-49.411 l -0.109,-296.949 c 0,-3.047 2.771,-4.589 8.074,-4.589 h 67.633 c 0.916,0 1.303,-1.579 1.303,-4.44 V 12.15 3.305 C -50.359,0.959 -50.746,0 -51.662,0 l -284.289,0.075 c -0.809,0 -1.412,1.251 -1.801,3.673 -0.422,2.752 -0.66,5.394 -0.66,8.402 0,3.633 0.238,6.903 0.66,9.768 0.389,2.973 0.992,4.514 1.801,4.514 l 65.353,-0.074 c 4.552,0 6.717,1.614 6.717,4.622 l 0.128,322.248 c 0,40.635 -5.063,70.255 -15.233,88.973 -10.295,18.795 -26.133,28.118 -47.35,28.118 -35.018,0 -63.134,-8.77 -84.461,-26.427 -21.269,-17.437 -38.725,-48.159 -52.342,-91.693 l -0.205,-321.142 c 0,-3.045 2.351,-4.588 6.791,-4.588 l 66.641,-0.037 c 0.754,0 1.359,-1.507 1.672,-4.479 0.367,-2.9 0.551,-6.17 0.551,-9.803 0,-3.008 -0.184,-5.65 -0.551,-8.293 -0.313,-2.531 -0.918,-3.708 -1.672,-3.708 l -285.647,0.074 c -0.662,0 -1.469,1.248 -1.836,3.705 -0.367,2.718 -0.494,5.324 -0.494,8.334 0,3.633 0.127,6.902 0.494,9.802 0.367,2.971 1.174,4.476 1.836,4.476 h 66.419 c 6.223,0 9.178,1.544 9.178,4.554 l 0.184,426.747 c 0,3.045 -3.011,4.552 -9.178,4.552 l -66.347,0.037 c -0.863,0 -1.542,1.321 -1.852,3.89 -0.424,2.496 -0.496,5.285 -0.496,8.186 0,3.707 0.072,6.974 0.496,9.871 0.31,2.977 1.045,4.478 1.852,4.478 l 208.641,-0.108 c 2.347,0 3.575,-1.212 3.575,-3.488 l -0.052,-75.652 c 5.176,16.116 12.809,29.806 22.793,41.222 9.874,11.49 21.032,20.665 33.112,27.567 12.33,6.863 25.418,12.002 39.401,15.452 14.187,3.486 27.991,5.101 41.81,5.101 54.122,0 96.609,-8.402 127.5,-25.291 30.703,-16.699 52.212,-38.648 64.546,-65.299 15.416,33.586 36.503,57.113 63.686,70.403 27.068,13.398 54.453,20.115 81.947,20.115 62.088,-0.072 110.484,-12.662 145.758,-37.881 35.204,-25.328 52.657,-68.605 52.584,-129.865 L 209.871,30.797 c 0,-3.045 3.209,-4.623 9.194,-4.623 l 67.705,-0.036 c 0.732,0 1.282,-1.474 1.282,-4.332 V 12.117 3.194 c 0,-2.311 -0.55,-3.34 -1.282,-3.34 z" /></g><g
           transform="translate(6536.709,4731.9121)"
           id="g116"><path
             id="path118"
             style="fill:#7b3333;fill-opacity:1;fill-rule:nonzero;stroke:none"
             d="m 0,0 c -14.555,-8.479 -29.604,-13.58 -45.441,-15.416 -15.545,-1.946 -32.248,-4.039 -49.756,-6.35 -10.739,-2.312 -19.676,-4.992 -26.944,-8.039 -7.285,-3.047 -13.267,-8.48 -17.892,-16.08 -4.61,-7.633 -7.821,-19.123 -9.62,-34.468 -2.091,-15.155 -3.081,-35.898 -3.081,-61.884 0,-12.224 0.382,-23.712 1.249,-34.503 0.86,-10.682 3.008,-20.008 6.77,-28.08 3.818,-8.004 9.802,-14.246 17.822,-18.907 8.075,-4.622 19.728,-6.827 34.961,-6.827 27.547,0 49.885,12.96 66.586,39.13 C -8.572,-165.618 0,-134.197 0,-97.567 Z m 178.797,-248.392 c -18.318,-9.578 -38.91,-14.387 -61.904,-14.352 -13.069,0 -25.844,1.873 -38.544,5.726 -12.515,3.852 -24.282,9.213 -35.513,16.114 -11.158,6.902 -20.28,14.939 -27.437,24.043 -7.325,9.251 -12.077,19.125 -14.243,29.877 -8.498,-23.707 -22.318,-42.284 -41.426,-55.571 -18.992,-13.362 -43.638,-20.078 -73.373,-20.078 -20.773,0 -41.294,2.017 -62.089,6.238 -20.647,4.223 -39.385,10.866 -56.159,20.079 -16.775,9.288 -30.468,21.437 -41.24,36.927 -10.791,15.127 -16.096,34.211 -15.967,57.262 0,29.769 6.46,53.992 19.528,72.789 13.011,18.719 28.373,33.328 46.433,43.607 18.002,10.35 36.559,17.36 55.554,21.105 19.106,3.817 34.835,6.608 47.041,8.112 33.786,3.01 61.904,6.46 84.899,10.241 22.995,3.818 34.467,11.82 34.467,24.117 v 87.213 c 0.058,22.869 -1.412,40.562 -4.44,53.226 -3.142,12.737 -7.708,22.059 -13.745,28.115 -6.112,6.239 -13.637,9.914 -22.45,10.977 -8.808,1.247 -18.552,1.727 -29.289,1.727 h -22.869 c -7.652,0 -14.426,-1.03 -20.172,-2.79 -5.724,-1.984 -10.222,-5.4 -13.742,-10.464 -3.379,-4.881 -5.231,-12.807 -5.231,-23.455 0,-10.608 1.54,-19.087 4.55,-25.253 3.029,-6.021 4.7,-14.134 4.7,-24.08 0,-12.224 -4.443,-22.904 -13.141,-32.081 -8.81,-9.178 -23.915,-13.801 -45.371,-13.692 -19.911,0 -34.466,5.91 -43.532,17.766 -9.252,11.782 -13.874,25.035 -13.874,39.571 0,11.488 4.182,23.38 12.643,35.493 8.498,12.298 20.28,23.42 35.623,33.293 15.307,9.985 33.182,17.986 53.335,24.08 20.224,6.168 42.615,9.213 67.081,9.213 61.904,-0.076 111.789,-16.811 149.211,-50.031 37.291,-33.186 56.103,-85.931 56.103,-157.764 l -0.124,-223.725 c 0,-25.913 8.328,-39.019 25.289,-39.019 9.908,0 17.932,2.13 24.098,6.313 6.039,4.221 9.873,9.363 11.339,15.564 0,0.699 1.049,0.369 2.973,-1.138 1.911,-1.544 4.004,-3.305 6.408,-5.286 2.149,-1.874 4.074,-3.851 5.615,-5.652 1.6,-1.981 2.331,-3.303 2.331,-4.039 -3.946,-10.717 -14.975,-20.849 -33.346,-30.318" /></g><g
           transform="translate(7165.1572,4478.1982)"
           id="g120"><path
             id="path122"
             style="fill:#7b3333;fill-opacity:1;fill-rule:nonzero;stroke:none"
             d="m 0,0 c -0.862,0 -1.416,1.213 -1.8,3.742 -0.42,2.646 -0.498,5.286 -0.498,8.333 0,3.6 0.078,6.903 0.498,9.801 0.384,2.936 0.938,4.443 1.8,4.443 h 66.585 c 3.691,0 5.67,1.577 5.67,4.551 l 0.129,322.318 c 0,40.598 -5.431,70.18 -15.966,88.938 -10.923,18.758 -26.761,28.117 -48.214,28.117 -35.147,0 -63.521,-8.847 -84.902,-26.389 -21.401,-17.476 -38.964,-48.162 -52.838,-91.77 l -0.186,-321.103 c 0,-3.011 2.332,-4.627 6.901,-4.627 h 67.816 c 0.678,0 0.99,-1.542 0.99,-4.403 V 12.224 3.413 C -54.015,0.989 -54.327,0 -55.005,0 L -341.83,0.146 c -0.917,0 -1.412,1.285 -1.831,3.669 -0.387,2.717 -0.571,5.398 -0.571,8.409 0,3.634 0.184,6.865 0.571,9.727 0.419,2.972 0.914,4.512 1.831,4.512 l 66.531,-0.036 c 6.115,0 9.251,1.578 9.251,4.627 l 0.13,426.672 c 0,3.046 -3.085,4.589 -9.251,4.589 H -341.7 c -0.863,0 -1.356,1.358 -1.779,3.855 -0.368,2.532 -0.569,5.32 -0.569,8.296 0,3.635 0.201,6.902 0.569,9.799 0.423,3.048 0.972,4.442 1.779,4.442 l 208.825,-0.038 c 2.29,0 3.392,-1.246 3.392,-3.448 l -0.053,-75.689 c 5.359,16.153 12.937,29.731 22.922,41.258 9.929,11.487 21.088,20.629 33.366,27.529 12.15,6.827 25.399,11.965 39.514,15.414 14.243,3.526 28.172,5.179 41.938,5.179 62.695,-0.036 111.824,-16.665 147.412,-49.921 35.567,-33.33 53.261,-80.642 53.261,-141.98 L 208.765,30.87 c 0,-2.974 2.7,-4.625 8.08,-4.625 l 66.454,-0.036 c 0.733,0 1.302,-1.507 1.669,-4.48 0.424,-2.899 0.497,-6.126 0.497,-9.763 0,-3.045 -0.073,-5.654 -0.497,-8.369 -0.367,-2.457 -0.936,-3.707 -1.669,-3.707 z" /></g><g
           transform="translate(7908.5879,4880.4609)"
           id="g124"><path
             id="path126"
             style="fill:#7b3333;fill-opacity:1;fill-rule:nonzero;stroke:none"
             d="m 0,0 c -2.276,10.756 -7.27,20.262 -14.795,28.631 -7.652,8.48 -16.902,15.562 -27.567,21.401 -10.845,5.616 -22.058,9.983 -33.786,13.177 -11.949,3.012 -23.676,4.554 -35.075,4.554 -16.039,0 -29.214,-1.728 -39.531,-5.104 -10.405,-3.526 -20.517,-9.509 -30.392,-17.805 -15.344,-15.34 -26.133,-40.448 -32.12,-75.174 -6.222,-34.759 -9.248,-78.913 -9.248,-132.47 0,-54.366 2.9,-97.492 9.067,-129.575 6.038,-32.082 16.828,-55.83 32.191,-71.135 4.496,-4.59 8.074,-8.482 10.846,-11.525 2.643,-3.083 5.541,-5.287 8.625,-6.864 2.955,-1.544 6.609,-2.722 10.848,-3.524 4.201,-0.737 10.5,-1.105 18.869,-1.105 25.288,0 46.56,3.233 63.629,9.694 17.214,6.531 30.888,14.9 40.816,25.289 9.984,10.279 17.014,21.326 21.143,33.181 4.333,11.893 6.351,23.127 6.351,33.917 z m 3.264,-402.483 c -2.219,0 -3.393,0.954 -3.393,3.303 v 50.582 c -1.469,-4.697 -5.414,-10.642 -11.951,-17.949 -6.531,-7.196 -15.284,-14.316 -26.518,-21.068 -11.03,-6.977 -24.41,-12.92 -40.064,-17.951 -15.672,-4.847 -33.549,-7.381 -53.406,-7.381 -35.938,0 -68.239,7.156 -96.924,21.402 -28.596,14.06 -53.024,33.035 -73.358,56.785 -20.171,23.678 -35.881,50.58 -46.984,80.756 -11.029,30.242 -16.647,60.969 -16.647,92.313 0,32.341 6.717,63.612 20.098,94.153 13.381,30.575 31.694,58.142 54.435,82.626 22.993,24.406 50.065,44.045 81.083,59.062 30.89,14.791 64.127,22.279 99.142,22.279 24.596,-0.074 45.682,-4.111 63.687,-12.115 C -29.475,76.239 -13.748,64.605 0,49.297 l 0.184,359.135 c 0,2.972 -2.278,4.625 -6.772,4.625 h -65.486 c -0.809,0 -1.283,1.21 -1.671,3.963 -0.421,2.646 -0.607,5.472 -0.607,8.553 0,3.892 0.186,7.343 0.607,10.463 0.388,2.972 0.862,4.55 1.725,4.55 l 204.145,-0.072 c 3.027,0 4.512,-1.248 4.512,-3.487 l -0.256,-807.537 c -0.055,-3.121 2.586,-4.627 8.074,-4.627 h 67.633 c 0.754,0 1.119,-1.653 1.119,-4.625 v -10.352 -9.138 c 0,-2.388 -0.365,-3.378 -1.119,-3.378 z" /></g><g
           transform="translate(8419.0977,5172.168)"
           id="g128"><path
             id="path130"
             style="fill:#7b3333;fill-opacity:1;fill-rule:nonzero;stroke:none"
             d="m 0,0 c -16.039,-16.41 -35.146,-24.702 -57.28,-24.629 -24.536,0 -44.818,8.293 -60.861,24.701 -16.021,16.482 -24.093,36.192 -24.093,59.133 0,24.45 8.072,45.074 24.093,61.924 16.043,16.812 36.379,25.254 60.912,25.254 22.137,-0.074 41.263,-8.442 57.359,-25.289 C 16.152,104.243 24.172,83.578 24.172,59.168 24.172,36.154 16.152,16.48 0,0 m -203.226,-694.337 c -0.786,0 -1.355,1.213 -1.649,3.669 -0.497,2.719 -0.682,5.361 -0.682,8.408 0,3.633 0.185,6.828 0.682,9.764 0.294,2.973 0.863,4.443 1.649,4.443 h 68.808 c 5.249,0 8.02,1.576 8.02,4.586 l 0.183,426.748 c 0,3.046 -2.826,4.516 -8.074,4.516 l -68.807,0.072 c -0.736,0 -1.304,1.32 -1.726,3.889 -0.367,2.497 -0.55,5.25 -0.55,8.15 0,3.782 0.183,6.976 0.55,9.908 0.422,2.977 0.99,4.444 1.855,4.444 l 206.291,-0.111 c 3.082,0 4.625,-1.21 4.625,-3.45 l -0.186,-454.24 c 0,-3.01 2.717,-4.551 8.077,-4.551 l 67.631,-0.076 c 0.806,0 1.119,-1.467 1.119,-4.328 v -9.73 -8.883 c 0,-2.313 -0.313,-3.299 -1.119,-3.299 z" /></g><g
           transform="translate(9024.1094,4803.7812)"
           id="g132"><path
             id="path134"
             style="fill:#7b3333;fill-opacity:1;fill-rule:nonzero;stroke:none"
             d="m 0,0 c -12.811,-12.627 -29.037,-18.902 -48.819,-18.902 -22.263,0 -38.724,4.808 -49.939,14.353 -11.049,9.617 -16.465,21.545 -16.465,36.191 0,8.403 0.918,15.087 2.643,20.003 2.041,4.919 3.894,9.324 5.927,13.179 1.837,3.78 3.821,7.856 5.674,12.04 2.036,4.185 2.899,9.838 2.899,16.956 0,12.483 -3.211,22.577 -9.744,30.396 -6.481,7.78 -15.051,11.745 -25.768,11.745 -6.918,0 -13.949,-1.247 -21.217,-4.001 -7.396,-2.605 -14.425,-8.518 -21.4,-17.288 -6.771,-8.885 -13.617,-21.84 -20.52,-39.276 -6.919,-17.253 -13.819,-40.487 -20.664,-69.709 l -0.056,-300.915 c 0,-1.615 0,-2.788 0.496,-3.449 0.366,-0.735 2.588,-1.212 6.277,-1.212 h 64.199 c 1.54,0 2.7,-1.54 3.559,-4.513 0.68,-2.864 0.941,-6.096 0.941,-9.69 0,-3.049 -0.261,-5.73 -0.941,-8.444 -0.859,-2.424 -2.019,-3.673 -3.559,-3.673 l -283.244,0.074 c -0.809,0 -1.359,1.285 -1.799,3.709 -0.238,2.717 -0.607,5.395 -0.607,8.408 0,3.631 0.369,6.862 0.607,9.725 0.44,2.973 0.99,4.512 1.799,4.512 l 66.403,-0.033 c 6.274,0 9.175,1.54 9.175,4.586 l 0.186,426.749 c 0,3.008 -2.959,4.585 -9.123,4.585 h -66.457 c -0.861,0 -1.359,1.289 -1.799,3.856 -0.312,2.497 -0.496,5.249 -0.496,8.223 0,3.669 0.184,6.937 0.496,9.837 0.44,3.047 1.047,4.478 1.799,4.478 l 208.746,-0.071 c 2.296,-0.812 3.472,-2.021 3.472,-3.452 V 83.324 c 6.771,20.262 14.848,36.451 24.042,48.344 9.121,12.076 18.609,21.068 28.722,27.234 9.875,6.131 20.481,10.169 31.383,12.075 11.233,1.873 22.502,2.902 33.975,2.902 19.178,0 36.133,-3.488 51.111,-10.463 14.794,-6.863 27.201,-15.711 37.184,-26.463 C -0.92,126.162 6.424,114.047 11.545,100.795 16.408,87.436 18.941,74.734 18.941,62.512 18.941,33.367 12.59,12.592 0,0" /></g></g></g></g></svg>