<?xml version="1.0" encoding="UTF-8" standalone="no"?>
<svg
   xmlns:dc="http://purl.org/dc/elements/1.1/"
   xmlns:cc="http://creativecommons.org/ns#"
   xmlns:rdf="http://www.w3.org/1999/02/22-rdf-syntax-ns#"
   xmlns:svg="http://www.w3.org/2000/svg"
   xmlns="http://www.w3.org/2000/svg"
   viewBox="0 0 14400 14400"
   height="14400"
   width="14400"
   xml:space="preserve"
   id="svg2"
   version="1.1"><metadata
     id="metadata8"><rdf:RDF><cc:Work
         rdf:about=""><dc:format>image/svg+xml</dc:format><dc:type
           rdf:resource="http://purl.org/dc/dcmitype/StillImage" /></cc:Work></rdf:RDF></metadata><defs
     id="defs6"><clipPath
       id="clipPath18"
       clipPathUnits="userSpaceOnUse"><path
         id="path16"
         d="M 0,10800 H 10800 V 0 H 0 Z" /></clipPath></defs><g
     transform="matrix(1.3333333,0,0,-1.3333333,0,14400)"
     id="g10"><g
       id="g12"><g
         clip-path="url(#clipPath18)"
         id="g14"><g
           transform="translate(10456.002,5428.9985)"
           id="g20"><path
             id="path22"
             style="fill:#7b3333;fill-opacity:1;fill-rule:nonzero;stroke:none"
             d="m 0,0 c 0,-2792.305 -2263.691,-5056 -5056.085,-5056 -2792.227,0 -5055.918,2263.695 -5055.918,5056 0,2792.397 2263.691,5056 5055.918,5056 C -2263.691,5056 0,2792.397 0,0" /></g><g
           transform="translate(4724.0576,2898.0098)"
           id="g24"><path
             id="path26"
             style="fill:#e4c582;fill-opacity:1;fill-rule:nonzero;stroke:none"
             d="m 0,0 h 0.421 v 14.055 c 0,4.797 0.125,9.595 0.125,14.476 0,3.028 -0.125,6.149 -0.125,9.174 0,5.727 0.125,8.752 0.125,8.752 H 0.421 V 2483.521 H 0 c -0.421,43.763 -4.799,84.414 -12.58,121.701 -11.741,56.554 -31.102,106.043 -55.718,149.468 -284.97,523.065 -960.829,378.307 -960.829,378.307 -259.261,-39.054 -451.107,-143.919 -451.107,-143.919 l 0.296,0.088 c -3.703,-1.937 -7.659,-3.959 -11.447,-6.061 -171.645,97.796 -339.842,112.692 -339.842,112.692 117.446,-25.08 120.728,-594.352 119.172,-753.58 -0.463,-7.744 -0.59,-15.322 -0.59,-23.063 V 1203.676 c 1.684,-702.916 701.443,-764.516 701.443,-764.516 -117.446,25.074 -120.559,593.164 -119.002,752.903 0.124,3.957 0.124,7.662 0.124,11.613 h 0.716 v 1115.478 c 0,3.114 -0.125,6.145 -0.125,9.344 h 0.125 c 0,286.822 -116.059,467.262 -253.621,580.374 13.72,7.409 23.61,12.711 27.142,13.971 162.435,69.857 354.574,111.518 519.235,28.03 130.494,-65.646 243.439,-204.176 249.959,-349.185 1.98,-42.926 2.947,-84.505 3.664,-122.708 V 0 h 0.293 C -569.985,-687.18 118.752,-748.111 118.752,-748.111 2.524,-723.457 -1.558,-166.387 0,0" /></g><g
           transform="translate(5906.2744,2233.7227)"
           id="g28"><path
             id="path30"
             style="fill:#e4c582;fill-opacity:1;fill-rule:nonzero;stroke:none"
             d="m 0,0 c 0.462,7.992 0.717,15.902 0.717,23.816 0,3.032 -0.128,5.899 -0.255,8.92 0.255,5.895 0.255,8.84 0.255,8.84 H 0.462 V 3147.809 H 0.169 c -0.592,43.762 -4.797,84.413 -12.58,121.7 -11.742,56.554 -31.1,106.043 -55.969,149.468 -239.904,440.502 -757.159,407.343 -914.374,385.795 v -146.605 c 50.033,-5.643 99.225,-19.194 146.314,-43.007 130.492,-65.646 243.565,-204.176 249.919,-349.185 1.724,-42.926 2.986,-84.505 3.701,-122.707 V 23.816 c 0,-3.193 0,-6.394 0.128,-9.505 h -0.128 c 0,-705.276 701.741,-767.129 701.741,-767.129 C 1.43,-727.908 -1.39,-159.824 0,0" /></g><g
           transform="translate(6666.418,6517.627)"
           id="g32"><path
             id="path34"
             style="fill:#e4c582;fill-opacity:1;fill-rule:nonzero;stroke:none"
             d="m 0,0 c -142.904,100.574 -293.174,186.166 -450.389,262.331 -89.503,44.187 -180.947,84.922 -272.132,124.478 -89.887,38.63 -179.939,77.261 -269.32,117.487 -140.632,63.878 -281.016,129.693 -413.906,208.297 -40.145,23.232 -79.153,47.892 -117.322,73.558 -246.675,164.873 -455.479,341.531 -469.746,662.944 -4.376,92.745 11.572,192.9 39.428,281.769 26.596,84.921 68.425,177.75 119.596,250.8 50.454,71.706 110.841,145.354 175.854,203.926 49.782,45.022 99.816,91.484 155.911,127.758 70.865,46.794 150.437,82.48 238.933,107.472 87.361,27.442 180.527,42.922 276.343,42.42 81.006,3.536 167.398,0.925 259.01,-8.165 37.451,-3.787 73.513,-9.092 108.398,-15.569 l -108.398,15.569 c 0,0 391.14,-58.998 436.248,-422.656 v -0.425 c 4.925,-106.207 5.642,-202.489 5.513,-254.332 h -0.588 v -241.211 h 2.271 C -244.274,900.528 370.525,847.588 370.525,847.588 270.412,869.303 256.568,1336.825 255.178,1536.451 h 0.254 v 241.211 h -0.254 c -6.648,450.938 -291.069,628.262 -483.631,696.688 -40.145,16.495 -83.531,33.326 -130.617,50.748 -87.657,32.652 -206.408,56.22 -354.409,71.372 -209.225,20.698 -405.572,6.561 -590.77,-43.008 -185.619,-49.487 -348.05,-127.591 -487.713,-236.409 -140.804,-108.064 -256.273,-239.271 -346.2,-393.793 -90.052,-153.512 -144.588,-324.951 -163.987,-514.149 -22.051,-221.843 -8.166,-407.001 41.026,-554.706 49.867,-147.617 120.858,-272.93 213.182,-373.424 90.727,-101.161 193.53,-182.881 306.726,-245.162 112.271,-62.699 217.432,-115.55 315.102,-159.319 l 760.693,-352.301 c 82.858,-37.787 165.544,-75.741 244.867,-120.596 66.867,-38.295 130.872,-82.482 186.711,-135.502 54.579,-51.172 103.058,-110.085 143.916,-173.456 43.135,-66.236 77.642,-138.278 100.531,-214.446 88.917,-302.726 1.812,-624.646 -197.482,-871.321 -26.597,-32.827 -48.058,-58.663 -81.175,-86.097 -32.485,-27.275 -63.038,-50.5 -103.055,-76.418 35.64,5.973 62.237,13.041 91.777,22.891 68.129,23.308 132.893,56.13 195.508,90.809 64.72,35.935 125.527,78.185 181.66,125.737 58.072,49.485 111.096,103.52 159.321,161.673 48.183,57.734 90.305,119.677 125.778,185.744 34.928,65.478 62.071,134.325 88.496,203.59 3.114,8.583 6.942,16.83 9.215,25.078 101.501,346.238 -26.005,729.594 -282.32,978.38 C 137.816,-101.33 68.721,-48.138 0,0" /></g><g
           transform="translate(6804.9512,9123.2686)"
           id="g36"><path
             id="path38"
             style="fill:#e4c582;fill-opacity:1;fill-rule:nonzero;stroke:none"
             d="m 0,0 c 36.735,0 68.297,13.802 94.723,40.733 26.552,27.438 40.271,60.09 40.271,98.048 0,40.818 -13.719,74.736 -40.271,102.592 C 68.297,269.399 36.735,283.119 0,283.119 c -40.695,0 -74.483,-13.72 -100.785,-41.746 -26.846,-27.856 -39.725,-61.774 -39.725,-102.592 0,-37.958 12.879,-70.61 39.725,-98.048 C -74.483,13.802 -40.695,0 0,0" /></g><g
           transform="translate(7211.957,8828.3643)"
           id="g40"><path
             id="path42"
             style="fill:#e4c582;fill-opacity:1;fill-rule:nonzero;stroke:none"
             d="m 0,0 c 36.736,0 68.42,13.718 94.975,40.905 26.721,26.931 40.02,59.838 40.02,97.709 0,40.485 -13.299,74.65 -40.02,102.596 C 68.42,268.981 36.736,282.95 0,282.95 c -40.441,0 -74.231,-13.969 -100.531,-41.74 -26.85,-27.946 -40.022,-62.111 -40.022,-102.596 0,-37.871 13.172,-70.778 40.022,-97.709 C -74.231,13.718 -40.441,0 0,0" /></g><g
           transform="translate(7333.6533,8547.4365)"
           id="g44"><path
             id="path46"
             style="fill:#e4c582;fill-opacity:1;fill-rule:nonzero;stroke:none"
             d="m 0,0 c -26.722,27.686 -58.241,41.575 -94.853,41.575 -40.437,0 -74.058,-13.889 -100.95,-41.575 -26.425,-28.027 -39.555,-62.282 -39.555,-102.764 0,-38.04 13.13,-70.61 39.555,-97.967 26.892,-26.93 60.513,-40.816 100.95,-40.816 36.612,0 68.131,13.886 94.853,40.816 26.427,27.357 40.019,59.927 40.019,97.967 C 40.019,-62.282 26.427,-28.027 0,0" /></g></g></g></g></svg>